<svg xmlns="http://www.w3.org/2000/svg" viewBox="0 0 321.97 14.67"><defs><style>.cls-1{fill:#231f20}.cls-2,.cls-3{fill:#fff}.cls-3{fill-rule:evenodd}</style></defs><title>logo</title><g id="Layer_2" data-name="Layer 2"><g id="Layer_1-2" data-name="Layer 1"><path class="cls-1" d="M14.59 0H321.96999999999997V14.45H14.59z"/><path class="cls-2" d="M38.39 7.74c.12-1.8-.6-2.76-2.45-2.76s-3 .75-3 3.37V11c0 3.6 1.79 3.68 3 3.68.61 0 2.7 0 2.65-2.93H37.3c0 1.82-1.12 1.94-1.48 1.94-.92 0-1.67-.27-1.67-2.55V8.65c0-1.6.23-1.83.27-1.93A1.46 1.46 0 0 1 35.83 6a1.57 1.57 0 0 1 1.05.4 2.15 2.15 0 0 1 .27 1.35h1.23"/><path class="cls-2" d="M44.98 14.48L44.98 13.45 41.45 13.45 41.45 10.23 44.66 10.23 44.66 9.2 41.45 9.2 41.45 6.21 44.91 6.21 44.91 5.18 40.31 5.18 40.31 14.48 44.98 14.48"/><path class="cls-2" d="M52.05 5.18L52.05 13.14 52.03 13.14 48.56 5.18 46.95 5.18 46.95 14.48 47.96 14.48 47.96 6.42 47.99 6.42 51.51 14.48 53.07 14.48 53.07 5.18 52.05 5.18"/><path class="cls-2" d="M54.37 5.18L54.37 6.21 56.72 6.21 56.72 14.48 57.86 14.48 57.86 6.21 60.2 6.21 60.2 5.18 54.37 5.18"/><path class="cls-2" d="M66.1 14.48L66.1 13.45 62.57 13.45 62.57 10.23 65.78 10.23 65.78 9.2 62.57 9.2 62.57 6.21 66.03 6.21 66.03 5.18 61.43 5.18 61.43 14.48 66.1 14.48"/><path class="cls-3" d="M70.42 10.2a1.19 1.19 0 0 1 1.35 1.18 11.05 11.05 0 0 0 .35 3.09h1.18A14.74 14.74 0 0 1 73 12c-.06-1.87-.43-2.23-1.46-2.39a2 2 0 0 0 1.63-2.11A2.06 2.06 0 0 0 71 5.18h-3v9.3h1.14V10.2h1.33m-1.33-4h1.72c.88 0 1.2.75 1.2 1.42s-.4 1.54-1.21 1.54h-1.76z"/><path class="cls-2" d="M80.53 14.48L80.53 10.23 83.65 10.23 83.65 9.2 80.53 9.2 80.53 6.21 83.82 6.21 83.82 5.18 79.39 5.18 79.39 14.48 80.53 14.48"/><path class="cls-3" d="M87.75 13.68c-1.08 0-1.64-.52-1.64-2.55V8c0-1.95 1.29-2 1.64-2s1.65 0 1.65 2v3.14c0 2-.57 2.55-1.64 2.55m0 1c1.89 0 2.81-1 2.81-3.59V8c0-1.85-.91-3-2.81-3s-2.81 1.18-2.81 3v3.05c0 2.61.91 3.62 2.8 3.62zm7.32-4.49a1.19 1.19 0 0 1 1.35 1.18 11.1 11.1 0 0 0 .35 3.09H98a14.63 14.63 0 0 1-.35-2.47c-.06-1.87-.43-2.23-1.46-2.39a2 2 0 0 0 1.63-2.11 2.06 2.06 0 0 0-2.14-2.32H92.6v9.3h1.14V10.2h1.33m-1.33-4h1.72c.88 0 1.2.75 1.2 1.42s-.4 1.54-1.21 1.54h-1.71zm9.98 8.28h2.05c1.56 0 2.46-.4 2.94-1.2a8.06 8.06 0 0 0 .54-3.75 10 10 0 0 0-.4-2.94 2.37 2.37 0 0 0-2.4-1.42h-2.74v9.3m1.14-8.27h1.5c1.19 0 1.74.7 1.74 2.58v1.88c0 2.16-.58 2.78-2.16 2.78h-1.07z"/><path class="cls-2" d="M115.92 14.48L115.92 13.45 112.39 13.45 112.39 10.23 115.6 10.23 115.6 9.2 112.39 9.2 112.39 6.21 115.85 6.21 115.85 5.18 111.25 5.18 111.25 14.48 115.92 14.48"/><path class="cls-3" d="M120.43 10.2a1.19 1.19 0 0 1 1.35 1.18 11.05 11.05 0 0 0 .35 3.09h1.19A14.63 14.63 0 0 1 123 12c-.06-1.87-.43-2.23-1.46-2.39a2 2 0 0 0 1.63-2.12A2.06 2.06 0 0 0 121 5.18h-3v9.3h1.14V10.2h1.33m-1.33-4h1.72c.88 0 1.2.75 1.2 1.42s-.4 1.54-1.21 1.54h-1.71z"/><path class="cls-2" d="M126.58 6.21L126.6 6.21 129.05 14.48 130.13 14.48 132.62 6.21 132.65 6.21 132.65 14.48 133.78 14.48 133.78 5.18 131.91 5.18 129.63 12.98 129.61 12.98 127.36 5.18 125.52 5.18 125.52 14.48 126.58 14.48 126.58 6.21"/><path class="cls-3" d="M140.33 11.23h-2.86l1.4-5 1.43 5m-5 3.24h1.15l.67-2.21h3.45l.64 2.21h1.27l-2.9-9.3h-1.38z"/><path class="cls-2" d="M142.45 5.18L142.45 6.21 144.8 6.21 144.8 14.48 145.93 14.48 145.93 6.21 148.28 6.21 148.28 5.18 142.45 5.18"/><path class="cls-3" d="M152.28 13.68c-1.08 0-1.64-.52-1.64-2.55V8c0-1.95 1.29-2 1.64-2s1.64.06 1.64 2v3.14c0 2-.57 2.55-1.64 2.55m0 1c1.89 0 2.81-1 2.81-3.59V8c0-1.85-.91-3-2.81-3s-2.81 1.18-2.81 3v3.05c0 2.61.92 3.62 2.81 3.62z"/><path class="cls-2" d="M161.78 14.48L161.78 13.45 158.5 13.45 158.5 5.18 157.37 5.18 157.37 14.48 161.78 14.48"/><path class="cls-3" d="M165.67 13.68c-1.08 0-1.64-.52-1.64-2.55V8c0-1.95 1.29-2 1.64-2s1.64.06 1.64 2v3.14c0 2-.57 2.55-1.64 2.55m0 1c1.89 0 2.81-1 2.81-3.59V8c0-1.85-.91-3-2.81-3s-2.81 1.18-2.81 3v3.05c0 2.61.92 3.62 2.81 3.62z"/><path class="cls-2" d="M176.19 7.67c.07-1.94-.84-2.68-2.77-2.68s-2.81 1.18-2.81 3v3.05c0 2.58.92 3.59 2.81 3.59a5.33 5.33 0 0 0 2.73-.7V9.46h-2.78v1H175v2.78a2.74 2.74 0 0 1-1.59.41c-1.08 0-1.64-.51-1.64-2.55V8c0-1.95 1.29-2 1.64-2 1.15 0 1.58.59 1.58 1.69h1.19"/><path class="cls-2" d="M180.7 9.68L178.96 5.18 177.69 5.18 180.08 10.94 180.08 14.48 181.22 14.48 181.22 10.94 183.66 5.18 182.51 5.18 180.7 9.68"/><path class="cls-3" d="M193 11.23h-2.85l1.4-5 1.43 5m-5 3.24h1.15l.67-2.21h3.45l.64 2.21h1.27l-2.9-9.3h-1.45z"/><path class="cls-2" d="M201.74 5.18L201.74 13.14 201.71 13.14 198.24 5.18 196.63 5.18 196.63 14.48 197.65 14.48 197.65 6.42 197.67 6.42 201.19 14.48 202.75 14.48 202.75 5.18 201.74 5.18"/><path class="cls-3" d="M205.4 14.48h2.05c1.56 0 2.46-.4 2.94-1.2a8 8 0 0 0 .54-3.75 10 10 0 0 0-.4-2.94 2.37 2.37 0 0 0-2.4-1.42h-2.73v9.3m1.14-8.27H208c1.19 0 1.74.7 1.74 2.58v1.88c0 2.16-.58 2.78-2.16 2.78h-1.08z"/><path class="cls-2" d="M221.85 14.48L221.85 13.45 218.57 13.45 218.57 5.18 217.43 5.18 217.43 14.48 221.85 14.48"/><path class="cls-3" d="M227.7 11.23h-2.86l1.4-5 1.43 5m-5 3.24h1.15l.67-2.21H228l.64 2.21h1.27L227 5.18h-1.45z"/><path class="cls-2" d="M231 11.71c0 .89 0 3 2.61 3 1.47 0 2.77-.63 2.77-2.59 0-2.95-4-2.65-4-4.7A1.27 1.27 0 0 1 233.75 6c1.08 0 1.38.67 1.37 1.69h1.19c.07-1.89-.84-2.72-2.47-2.72a2.4 2.4 0 0 0-2.62 2.52c0 2.79 4 2.56 4 4.62a1.39 1.39 0 0 1-1.59 1.51 1.44 1.44 0 0 1-1.5-1.66v-.27H231"/><path class="cls-2" d="M243.18 14.48L243.18 13.45 239.65 13.45 239.65 10.23 242.86 10.23 242.86 9.2 239.65 9.2 239.65 6.21 243.11 6.21 243.11 5.18 238.51 5.18 238.51 14.48 243.18 14.48"/><path class="cls-3" d="M247.78 10.2a1.19 1.19 0 0 1 1.35 1.18 11.05 11.05 0 0 0 .35 3.09h1.19a14.64 14.64 0 0 1-.31-2.43c-.06-1.87-.43-2.23-1.46-2.39a2 2 0 0 0 1.63-2.12 2.06 2.06 0 0 0-2.14-2.32h-3.08v9.3h1.14V10.2h1.33m-1.33-4h1.72c.88 0 1.2.75 1.2 1.42s-.4 1.54-1.21 1.54h-1.71z"/><path class="cls-2" d="M256.64 11.71c0 .89 0 3 2.61 3 1.47 0 2.77-.63 2.77-2.59 0-2.95-4-2.65-4-4.7A1.27 1.27 0 0 1 259.39 6c1.08 0 1.39.67 1.37 1.69h1.19C262 5.81 261.1 5 259.47 5a2.4 2.4 0 0 0-2.62 2.52c0 2.79 4 2.56 4 4.62a1.39 1.39 0 0 1-1.59 1.51 1.44 1.44 0 0 1-1.5-1.66v-.27h-1.12m7.31-.64c0 2.58.91 3.59 2.81 3.59s2.81-1 2.81-3.59v-5.9h-1.14v5.95c0 2-.59 2.55-1.67 2.55s-1.67-.51-1.67-2.55V5.18h-1.14v5.9"/><path class="cls-3" d="M274.64 10.2a1.19 1.19 0 0 1 1.36 1.19 11.05 11.05 0 0 0 .35 3.09h1.19a14.64 14.64 0 0 1-.31-2.43c-.06-1.87-.43-2.23-1.46-2.39a2 2 0 0 0 1.63-2.12 2.06 2.06 0 0 0-2.14-2.32h-3.08v9.3h1.14V10.2h1.33m-1.33-4H275c.88 0 1.2.75 1.2 1.42s-.4 1.54-1.21 1.54h-1.69z"/><path class="cls-2" d="M285.14 7.67c.07-1.94-.84-2.68-2.77-2.68s-2.81 1.18-2.81 3v3.05c0 2.58.92 3.59 2.81 3.59a5.33 5.33 0 0 0 2.73-.7V9.46h-2.78v1H284v2.78a2.74 2.74 0 0 1-1.59.41c-1.08 0-1.64-.51-1.64-2.55V8c0-1.95 1.29-2 1.64-2 1.15 0 1.58.59 1.58 1.69h1.19"/><path class="cls-2" d="M292.4 14.48L292.4 13.45 288.87 13.45 288.87 10.23 292.08 10.23 292.08 9.2 288.87 9.2 288.87 6.21 292.33 6.21 292.33 5.18 287.73 5.18 287.73 14.48 292.4 14.48"/><path class="cls-3" d="M297 10.2a1.19 1.19 0 0 1 1.35 1.18 11.09 11.09 0 0 0 .35 3.09h1.19a14.64 14.64 0 0 1-.31-2.43c-.06-1.87-.43-2.23-1.46-2.39a2 2 0 0 0 1.63-2.12 2.06 2.06 0 0 0-2.14-2.32h-3.08v9.3h1.14V10.2H297m-1.33-4h1.72c.88 0 1.2.75 1.2 1.42s-.4 1.54-1.21 1.54h-1.71z"/><path class="cls-2" d="M304.19 9.68L302.45 5.18 301.18 5.18 303.57 10.94 303.57 14.48 304.71 14.48 304.71 10.94 307.14 5.18 306 5.18 304.19 9.68"/><path class="cls-2" d="M0 0H14.62V14.54H0z"/></g></g></svg>